<mxfile host="Electron" modified="2023-04-27T14:57:21.640Z" agent="Mozilla/5.0 (Windows NT 10.0; Win64; x64) AppleWebKit/537.36 (KHTML, like Gecko) draw.io/21.1.2 Chrome/106.0.5249.199 Electron/21.4.3 Safari/537.36" etag="ICf3bLryY69loLtXfqFY" version="21.1.2" type="device">
  <diagram name="Page-1" id="13e1069c-82ec-6db2-03f1-153e76fe0fe0">
    <mxGraphModel dx="809" dy="828" grid="0" gridSize="10" guides="1" tooltips="1" connect="1" arrows="1" fold="1" page="1" pageScale="1" pageWidth="1100" pageHeight="850" background="none" math="0" shadow="0">
      <root>
        <mxCell id="0" />
        <mxCell id="1" parent="0" />
        <mxCell id="7baba1c4bc27f4b0-2" value="UI" style="shape=umlLifeline;perimeter=lifelinePerimeter;whiteSpace=wrap;html=1;container=1;collapsible=0;recursiveResize=0;outlineConnect=0;rounded=1;shadow=0;comic=0;labelBackgroundColor=none;strokeWidth=1;fontFamily=Verdana;fontSize=12;align=center;fillColor=#dae8fc;strokeColor=#6c8ebf;" parent="1" vertex="1">
          <mxGeometry x="240" y="120" width="100" height="320" as="geometry" />
        </mxCell>
        <mxCell id="7baba1c4bc27f4b0-10" value="" style="html=1;points=[];perimeter=orthogonalPerimeter;rounded=0;shadow=0;comic=0;labelBackgroundColor=none;strokeWidth=1;fontFamily=Verdana;fontSize=12;align=center;fillColor=#dae8fc;strokeColor=#6c8ebf;" parent="7baba1c4bc27f4b0-2" vertex="1">
          <mxGeometry x="45" y="60" width="10" height="220" as="geometry" />
        </mxCell>
        <mxCell id="3Pp36iWaivMc5RK7Xfnv-3" value="&lt;font face=&quot;Verdana&quot; style=&quot;font-size: 12px;&quot;&gt;2. Validation&lt;/font&gt;" style="html=1;align=left;spacingLeft=2;endArrow=block;rounded=0;edgeStyle=orthogonalEdgeStyle;curved=0;rounded=0;" edge="1" parent="7baba1c4bc27f4b0-2">
          <mxGeometry relative="1" as="geometry">
            <mxPoint x="67" y="61" as="sourcePoint" />
            <Array as="points">
              <mxPoint x="97" y="61" />
              <mxPoint x="97" y="121" />
            </Array>
            <mxPoint x="57" y="121" as="targetPoint" />
          </mxGeometry>
        </mxCell>
        <mxCell id="7baba1c4bc27f4b0-3" value="Controller" style="shape=umlLifeline;perimeter=lifelinePerimeter;whiteSpace=wrap;html=1;container=1;collapsible=0;recursiveResize=0;outlineConnect=0;rounded=1;shadow=0;comic=0;labelBackgroundColor=none;strokeWidth=1;fontFamily=Verdana;fontSize=12;align=center;fillColor=#dae8fc;strokeColor=#6c8ebf;" parent="1" vertex="1">
          <mxGeometry x="400" y="120" width="100" height="320" as="geometry" />
        </mxCell>
        <mxCell id="7baba1c4bc27f4b0-13" value="" style="html=1;points=[];perimeter=orthogonalPerimeter;rounded=0;shadow=0;comic=0;labelBackgroundColor=none;strokeWidth=1;fontFamily=Verdana;fontSize=12;align=center;fillColor=#dae8fc;strokeColor=#6c8ebf;" parent="7baba1c4bc27f4b0-3" vertex="1">
          <mxGeometry x="45" y="60" width="10" height="220" as="geometry" />
        </mxCell>
        <mxCell id="7baba1c4bc27f4b0-4" value="DB" style="shape=umlLifeline;perimeter=lifelinePerimeter;whiteSpace=wrap;html=1;container=1;collapsible=0;recursiveResize=0;outlineConnect=0;rounded=1;shadow=0;comic=0;labelBackgroundColor=none;strokeWidth=1;fontFamily=Verdana;fontSize=12;align=center;fillColor=#dae8fc;strokeColor=#6c8ebf;" parent="1" vertex="1">
          <mxGeometry x="540" y="120" width="100" height="320" as="geometry" />
        </mxCell>
        <mxCell id="3Pp36iWaivMc5RK7Xfnv-4" value="&lt;font face=&quot;Verdana&quot; style=&quot;font-size: 12px;&quot;&gt;5. Validation&lt;/font&gt;" style="html=1;align=left;spacingLeft=2;endArrow=block;rounded=0;edgeStyle=orthogonalEdgeStyle;curved=0;rounded=0;" edge="1" parent="7baba1c4bc27f4b0-4">
          <mxGeometry relative="1" as="geometry">
            <mxPoint x="67" y="60" as="sourcePoint" />
            <Array as="points">
              <mxPoint x="97" y="60" />
              <mxPoint x="97" y="120" />
            </Array>
            <mxPoint x="58" y="120" as="targetPoint" />
          </mxGeometry>
        </mxCell>
        <mxCell id="3Pp36iWaivMc5RK7Xfnv-5" value="&lt;font face=&quot;Verdana&quot; style=&quot;font-size: 12px;&quot;&gt;6. Success or Fail&lt;/font&gt;" style="html=1;verticalAlign=bottom;endArrow=open;dashed=1;endSize=8;edgeStyle=elbowEdgeStyle;elbow=vertical;curved=0;rounded=0;" edge="1" parent="7baba1c4bc27f4b0-4">
          <mxGeometry relative="1" as="geometry">
            <mxPoint x="44" y="220" as="sourcePoint" />
            <mxPoint x="-81" y="220" as="targetPoint" />
          </mxGeometry>
        </mxCell>
        <mxCell id="7baba1c4bc27f4b0-8" value="Passenger" style="shape=umlLifeline;perimeter=lifelinePerimeter;whiteSpace=wrap;html=1;container=1;collapsible=0;recursiveResize=0;outlineConnect=0;rounded=1;shadow=0;comic=0;labelBackgroundColor=none;strokeWidth=1;fontFamily=Verdana;fontSize=12;align=center;fillColor=#dae8fc;strokeColor=#6c8ebf;" parent="1" vertex="1">
          <mxGeometry x="50" y="120" width="100" height="320" as="geometry" />
        </mxCell>
        <mxCell id="7baba1c4bc27f4b0-9" value="" style="html=1;points=[];perimeter=orthogonalPerimeter;rounded=0;shadow=0;comic=0;labelBackgroundColor=none;strokeWidth=1;fontFamily=Verdana;fontSize=12;align=center;fillColor=#dae8fc;strokeColor=#6c8ebf;" parent="7baba1c4bc27f4b0-8" vertex="1">
          <mxGeometry x="45" y="60" width="10" height="220" as="geometry" />
        </mxCell>
        <mxCell id="7baba1c4bc27f4b0-16" value="" style="html=1;points=[];perimeter=orthogonalPerimeter;rounded=0;shadow=0;comic=0;labelBackgroundColor=none;strokeWidth=1;fontFamily=Verdana;fontSize=12;align=center;fillColor=#dae8fc;strokeColor=#6c8ebf;" parent="1" vertex="1">
          <mxGeometry x="585" y="180" width="10" height="220" as="geometry" />
        </mxCell>
        <mxCell id="7baba1c4bc27f4b0-17" value="4. Input info" style="html=1;verticalAlign=bottom;endArrow=block;labelBackgroundColor=none;fontFamily=Verdana;fontSize=12;edgeStyle=elbowEdgeStyle;elbow=vertical;" parent="1" source="7baba1c4bc27f4b0-13" target="7baba1c4bc27f4b0-16" edge="1">
          <mxGeometry relative="1" as="geometry">
            <mxPoint x="510" y="220" as="sourcePoint" />
            <Array as="points">
              <mxPoint x="540" y="280" />
              <mxPoint x="460" y="220" />
            </Array>
          </mxGeometry>
        </mxCell>
        <mxCell id="7baba1c4bc27f4b0-11" value="1. Input info" style="html=1;verticalAlign=bottom;endArrow=block;entryX=-0.5;entryY=0.213;labelBackgroundColor=none;fontFamily=Verdana;fontSize=12;edgeStyle=elbowEdgeStyle;elbow=vertical;entryDx=0;entryDy=0;entryPerimeter=0;" parent="1" edge="1">
          <mxGeometry relative="1" as="geometry">
            <mxPoint x="110" y="279" as="sourcePoint" />
            <mxPoint x="280" y="278.99" as="targetPoint" />
            <Array as="points" />
          </mxGeometry>
        </mxCell>
        <mxCell id="7baba1c4bc27f4b0-14" value="3. SignUp()" style="html=1;verticalAlign=bottom;endArrow=block;labelBackgroundColor=none;fontFamily=Verdana;fontSize=12;edgeStyle=elbowEdgeStyle;elbow=vertical;" parent="1" edge="1">
          <mxGeometry relative="1" as="geometry">
            <mxPoint x="295" y="279" as="sourcePoint" />
            <mxPoint x="440" y="279" as="targetPoint" />
            <Array as="points">
              <mxPoint x="330" y="279" />
            </Array>
          </mxGeometry>
        </mxCell>
        <mxCell id="3Pp36iWaivMc5RK7Xfnv-6" value="&lt;font face=&quot;Verdana&quot; style=&quot;font-size: 12px;&quot;&gt;6. Success or Fail&lt;/font&gt;" style="html=1;verticalAlign=bottom;endArrow=open;dashed=1;endSize=8;edgeStyle=elbowEdgeStyle;elbow=vertical;curved=0;rounded=0;" edge="1" parent="1">
          <mxGeometry relative="1" as="geometry">
            <mxPoint x="445" y="340" as="sourcePoint" />
            <mxPoint x="300" y="340" as="targetPoint" />
          </mxGeometry>
        </mxCell>
        <mxCell id="3Pp36iWaivMc5RK7Xfnv-7" value="&lt;font face=&quot;Verdana&quot;&gt;&lt;span style=&quot;font-size: 12px;&quot;&gt;8. Account info if success&lt;/span&gt;&lt;/font&gt;" style="html=1;verticalAlign=bottom;endArrow=open;dashed=1;endSize=8;edgeStyle=elbowEdgeStyle;elbow=vertical;curved=0;rounded=0;entryX=0.9;entryY=0.727;entryDx=0;entryDy=0;entryPerimeter=0;" edge="1" parent="1" target="7baba1c4bc27f4b0-9">
          <mxGeometry relative="1" as="geometry">
            <mxPoint x="290" y="340" as="sourcePoint" />
            <mxPoint x="170" y="340" as="targetPoint" />
          </mxGeometry>
        </mxCell>
        <mxCell id="3Pp36iWaivMc5RK7Xfnv-8" value="UI" style="shape=umlLifeline;perimeter=lifelinePerimeter;whiteSpace=wrap;html=1;container=1;collapsible=0;recursiveResize=0;outlineConnect=0;rounded=1;shadow=0;comic=0;labelBackgroundColor=none;strokeWidth=1;fontFamily=Verdana;fontSize=12;align=center;fillColor=#dae8fc;strokeColor=#6c8ebf;" vertex="1" parent="1">
          <mxGeometry x="240" y="480" width="100" height="320" as="geometry" />
        </mxCell>
        <mxCell id="3Pp36iWaivMc5RK7Xfnv-9" value="" style="html=1;points=[];perimeter=orthogonalPerimeter;rounded=0;shadow=0;comic=0;labelBackgroundColor=none;strokeWidth=1;fontFamily=Verdana;fontSize=12;align=center;fillColor=#dae8fc;strokeColor=#6c8ebf;" vertex="1" parent="3Pp36iWaivMc5RK7Xfnv-8">
          <mxGeometry x="45" y="60" width="10" height="220" as="geometry" />
        </mxCell>
        <mxCell id="3Pp36iWaivMc5RK7Xfnv-10" value="&lt;font face=&quot;Verdana&quot; style=&quot;font-size: 12px;&quot;&gt;2. Validation&lt;/font&gt;" style="html=1;align=left;spacingLeft=2;endArrow=block;rounded=0;edgeStyle=orthogonalEdgeStyle;curved=0;rounded=0;" edge="1" parent="3Pp36iWaivMc5RK7Xfnv-8">
          <mxGeometry relative="1" as="geometry">
            <mxPoint x="67" y="61" as="sourcePoint" />
            <Array as="points">
              <mxPoint x="97" y="61" />
              <mxPoint x="97" y="121" />
            </Array>
            <mxPoint x="57" y="121" as="targetPoint" />
          </mxGeometry>
        </mxCell>
        <mxCell id="3Pp36iWaivMc5RK7Xfnv-11" value="Controller" style="shape=umlLifeline;perimeter=lifelinePerimeter;whiteSpace=wrap;html=1;container=1;collapsible=0;recursiveResize=0;outlineConnect=0;rounded=1;shadow=0;comic=0;labelBackgroundColor=none;strokeWidth=1;fontFamily=Verdana;fontSize=12;align=center;fillColor=#dae8fc;strokeColor=#6c8ebf;" vertex="1" parent="1">
          <mxGeometry x="400" y="480" width="100" height="320" as="geometry" />
        </mxCell>
        <mxCell id="3Pp36iWaivMc5RK7Xfnv-12" value="" style="html=1;points=[];perimeter=orthogonalPerimeter;rounded=0;shadow=0;comic=0;labelBackgroundColor=none;strokeWidth=1;fontFamily=Verdana;fontSize=12;align=center;fillColor=#dae8fc;strokeColor=#6c8ebf;" vertex="1" parent="3Pp36iWaivMc5RK7Xfnv-11">
          <mxGeometry x="45" y="60" width="10" height="220" as="geometry" />
        </mxCell>
        <mxCell id="3Pp36iWaivMc5RK7Xfnv-13" value="DB" style="shape=umlLifeline;perimeter=lifelinePerimeter;whiteSpace=wrap;html=1;container=1;collapsible=0;recursiveResize=0;outlineConnect=0;rounded=1;shadow=0;comic=0;labelBackgroundColor=none;strokeWidth=1;fontFamily=Verdana;fontSize=12;align=center;fillColor=#dae8fc;strokeColor=#6c8ebf;" vertex="1" parent="1">
          <mxGeometry x="540" y="480" width="100" height="320" as="geometry" />
        </mxCell>
        <mxCell id="3Pp36iWaivMc5RK7Xfnv-14" value="&lt;font face=&quot;Verdana&quot; style=&quot;font-size: 12px;&quot;&gt;5. Validation&lt;/font&gt;" style="html=1;align=left;spacingLeft=2;endArrow=block;rounded=0;edgeStyle=orthogonalEdgeStyle;curved=0;rounded=0;" edge="1" parent="3Pp36iWaivMc5RK7Xfnv-13">
          <mxGeometry relative="1" as="geometry">
            <mxPoint x="67" y="60" as="sourcePoint" />
            <Array as="points">
              <mxPoint x="97" y="60" />
              <mxPoint x="97" y="120" />
            </Array>
            <mxPoint x="58" y="120" as="targetPoint" />
          </mxGeometry>
        </mxCell>
        <mxCell id="3Pp36iWaivMc5RK7Xfnv-15" value="&lt;font face=&quot;Verdana&quot; style=&quot;font-size: 12px;&quot;&gt;6. Success or Fail&lt;/font&gt;" style="html=1;verticalAlign=bottom;endArrow=open;dashed=1;endSize=8;edgeStyle=elbowEdgeStyle;elbow=vertical;curved=0;rounded=0;" edge="1" parent="3Pp36iWaivMc5RK7Xfnv-13">
          <mxGeometry relative="1" as="geometry">
            <mxPoint x="44" y="220" as="sourcePoint" />
            <mxPoint x="-81" y="220" as="targetPoint" />
          </mxGeometry>
        </mxCell>
        <mxCell id="3Pp36iWaivMc5RK7Xfnv-16" value="Passenger" style="shape=umlLifeline;perimeter=lifelinePerimeter;whiteSpace=wrap;html=1;container=1;collapsible=0;recursiveResize=0;outlineConnect=0;rounded=1;shadow=0;comic=0;labelBackgroundColor=none;strokeWidth=1;fontFamily=Verdana;fontSize=12;align=center;fillColor=#dae8fc;strokeColor=#6c8ebf;" vertex="1" parent="1">
          <mxGeometry x="50" y="480" width="100" height="320" as="geometry" />
        </mxCell>
        <mxCell id="3Pp36iWaivMc5RK7Xfnv-17" value="" style="html=1;points=[];perimeter=orthogonalPerimeter;rounded=0;shadow=0;comic=0;labelBackgroundColor=none;strokeWidth=1;fontFamily=Verdana;fontSize=12;align=center;fillColor=#dae8fc;strokeColor=#6c8ebf;" vertex="1" parent="3Pp36iWaivMc5RK7Xfnv-16">
          <mxGeometry x="45" y="60" width="10" height="220" as="geometry" />
        </mxCell>
        <mxCell id="3Pp36iWaivMc5RK7Xfnv-18" value="" style="html=1;points=[];perimeter=orthogonalPerimeter;rounded=0;shadow=0;comic=0;labelBackgroundColor=none;strokeWidth=1;fontFamily=Verdana;fontSize=12;align=center;fillColor=#dae8fc;strokeColor=#6c8ebf;" vertex="1" parent="1">
          <mxGeometry x="585" y="540" width="10" height="220" as="geometry" />
        </mxCell>
        <mxCell id="3Pp36iWaivMc5RK7Xfnv-19" value="4. Input info" style="html=1;verticalAlign=bottom;endArrow=block;labelBackgroundColor=none;fontFamily=Verdana;fontSize=12;edgeStyle=elbowEdgeStyle;elbow=vertical;" edge="1" parent="1" source="3Pp36iWaivMc5RK7Xfnv-12" target="3Pp36iWaivMc5RK7Xfnv-18">
          <mxGeometry relative="1" as="geometry">
            <mxPoint x="510" y="580" as="sourcePoint" />
            <Array as="points">
              <mxPoint x="540" y="640" />
              <mxPoint x="460" y="580" />
            </Array>
          </mxGeometry>
        </mxCell>
        <mxCell id="3Pp36iWaivMc5RK7Xfnv-20" value="1. Input info" style="html=1;verticalAlign=bottom;endArrow=block;entryX=-0.5;entryY=0.213;labelBackgroundColor=none;fontFamily=Verdana;fontSize=12;edgeStyle=elbowEdgeStyle;elbow=vertical;entryDx=0;entryDy=0;entryPerimeter=0;" edge="1" parent="1">
          <mxGeometry relative="1" as="geometry">
            <mxPoint x="110" y="639" as="sourcePoint" />
            <mxPoint x="280" y="638.99" as="targetPoint" />
            <Array as="points" />
          </mxGeometry>
        </mxCell>
        <mxCell id="3Pp36iWaivMc5RK7Xfnv-21" value="3. Login()" style="html=1;verticalAlign=bottom;endArrow=block;labelBackgroundColor=none;fontFamily=Verdana;fontSize=12;edgeStyle=elbowEdgeStyle;elbow=vertical;" edge="1" parent="1">
          <mxGeometry relative="1" as="geometry">
            <mxPoint x="295" y="639" as="sourcePoint" />
            <mxPoint x="440" y="639" as="targetPoint" />
            <Array as="points">
              <mxPoint x="330" y="639" />
            </Array>
          </mxGeometry>
        </mxCell>
        <mxCell id="3Pp36iWaivMc5RK7Xfnv-22" value="&lt;font face=&quot;Verdana&quot; style=&quot;font-size: 12px;&quot;&gt;6. Success or Fail&lt;/font&gt;" style="html=1;verticalAlign=bottom;endArrow=open;dashed=1;endSize=8;edgeStyle=elbowEdgeStyle;elbow=vertical;curved=0;rounded=0;" edge="1" parent="1">
          <mxGeometry relative="1" as="geometry">
            <mxPoint x="445" y="700" as="sourcePoint" />
            <mxPoint x="300" y="700" as="targetPoint" />
          </mxGeometry>
        </mxCell>
        <mxCell id="3Pp36iWaivMc5RK7Xfnv-23" value="&lt;font face=&quot;Verdana&quot;&gt;&lt;span style=&quot;font-size: 12px;&quot;&gt;8. Login system if success&lt;/span&gt;&lt;/font&gt;" style="html=1;verticalAlign=bottom;endArrow=open;dashed=1;endSize=8;edgeStyle=elbowEdgeStyle;elbow=vertical;curved=0;rounded=0;entryX=0.9;entryY=0.727;entryDx=0;entryDy=0;entryPerimeter=0;" edge="1" parent="1" target="3Pp36iWaivMc5RK7Xfnv-17">
          <mxGeometry relative="1" as="geometry">
            <mxPoint x="290" y="700" as="sourcePoint" />
            <mxPoint x="170" y="700" as="targetPoint" />
          </mxGeometry>
        </mxCell>
      </root>
    </mxGraphModel>
  </diagram>
</mxfile>
